# xmcd CD database file
# Generated: Sat Dec 7 12:33:26 2002 by KSCD
# 
# Track frame offsets:
#       150
#       17737
#       34085
#       50122
#       66190
#       87305
#       103743
#       120905
#       139203
#       155118
#       171258
#       187673
#       204150
#       223068
#
# Disc length: 3236 seconds
#
# Revision: 1
# Processed by: cddbd v1.4PL0 Copyright (c) Steve Scherf et al.
# Submitted via: Kscd 1.3.3
#
DISCID=c40ca20e
DTITLE=Shania twain - Come on
DYEAR=1900
DGENRE=
TTITLE0=Let go girls
TTITLE1=
TTITLE2=
TTITLE3=
TTITLE4=
TTITLE5=
TTITLE6=
TTITLE7=
TTITLE8=
TTITLE9=
TTITLE10=
TTITLE11=
TTITLE12=
TTITLE13=
EXTD=
EXTT0=
EXTT1=
EXTT2=
EXTT3=
EXTT4=
EXTT5=
EXTT6=
EXTT7=
EXTT8=
EXTT9=
EXTT10=
EXTT11=
EXTT12=
EXTT13=
PLAYORDER=
